<svg class="generator__canvas" viewBox="0 0 200 200" xmlns="http://www.w3.org/2000/svg" version="1.1" xmlns:xlink="http://www.w3.org/1999/xlink" xmlns:svgjs="http://svgjs.dev/svgjs"><circle r="5" cx="5" cy="5" fill="#0e0e15" transform="matrix(0.5240918042386002,0,0,0.5240918042386002,2.3795409788069986,2.3795409788069986)"></circle><circle r="5" cx="5" cy="15" fill="#0e0e15" transform="matrix(0.4966400638125933,0,0,0.4966400638125933,2.5167996809370337,7.550399042811101)"></circle><circle r="5" cx="5" cy="25" fill="#0e0e15" transform="matrix(0.46525390445326176,0,0,0.46525390445326176,2.673730477733691,13.368652388668457)"></circle><circle r="5" cx="5" cy="35" fill="#0e0e15" transform="matrix(0.43182381785748125,0,0,0.43182381785748125,2.8408809107125936,19.886166374988157)"></circle><circle r="5" cx="5" cy="45" fill="#0e0e15" transform="matrix(0.3983667104486401,0,0,0.3983667104486401,3.0081664477567998,27.073498029811198)"></circle><circle r="5" cx="5" cy="55" fill="#0e0e15" transform="matrix(0.3668898413847703,0,0,0.3668898413847703,3.1655507930761484,34.82105872383763)"></circle><circle r="5" cx="5" cy="65" fill="#0e0e15" transform="matrix(0.33940991468606835,0,0,0.33940991468606835,3.3029504265696583,42.93835554540556)"></circle><circle r="5" cx="5" cy="75" fill="#0e0e15" transform="matrix(0.3178789436178201,0,0,0.3178789436178201,3.4106052819108994,51.159079228663494)"></circle><circle r="5" cx="5" cy="85" fill="#0e0e15" transform="matrix(0.3040031656963953,0,0,0.3040031656963953,3.4799841715180238,59.1597309158064)"></circle><circle r="5" cx="5" cy="95" fill="#0e0e15" transform="matrix(0.2990075680644505,0,0,0.2990075680644505,3.5049621596777474,66.5942810338772)"></circle><circle r="5" cx="5" cy="105" fill="#0e0e15" transform="matrix(0.30355044882763493,0,0,0.30355044882763493,3.4822477558618252,73.12720287309833)"></circle><circle r="5" cx="5" cy="115" fill="#0e0e15" transform="matrix(0.3180976928585937,0,0,0.3180976928585937,3.409511535707032,78.41876532126173)"></circle><circle r="5" cx="5" cy="125" fill="#0e0e15" transform="matrix(0.3428127702948093,0,0,0.3428127702948093,3.2859361485259537,82.14840371314884)"></circle><circle r="5" cx="5" cy="135" fill="#0e0e15" transform="matrix(0.3770826497320072,0,0,0.3770826497320072,3.1145867513399637,84.09384228617903)"></circle><circle r="5" cx="5" cy="145" fill="#0e0e15" transform="matrix(0.41932569731926184,0,0,0.41932569731926184,2.903371513403691,84.19777388870703)"></circle><circle r="5" cx="5" cy="155" fill="#0e0e15" transform="matrix(0.4670590517382386,0,0,0.4670590517382386,2.664704741308807,82.60584698057302)"></circle><circle r="5" cx="5" cy="165" fill="#0e0e15" transform="matrix(0.5171557622075539,0,0,0.5171557622075539,2.4142211889622307,79.66929923575361)"></circle><circle r="5" cx="5" cy="175" fill="#0e0e15" transform="matrix(0.5662209884280703,0,0,0.5662209884280703,2.168895057859648,75.91132702508769)"></circle><circle r="5" cx="5" cy="185" fill="#0e0e15" transform="matrix(0.611014947521251,0,0,0.611014947521251,1.9449252623937454,71.96223470856857)"></circle><circle r="5" cx="5" cy="195" fill="#0e0e15" transform="matrix(0.6488480535104583,0,0,0.6488480535104583,1.7557597324477086,68.47462956546063)"></circle><circle r="5" cx="15" cy="5" fill="#0e0e15" transform="matrix(0.5050076404982409,0,0,0.5050076404982409,7.424885392526387,2.4749617975087954)"></circle><circle r="5" cx="15" cy="15" fill="#0e0e15" transform="matrix(0.48244649407062445,0,0,0.48244649407062445,7.7633025889406335,7.7633025889406335)"></circle><circle r="5" cx="15" cy="25" fill="#0e0e15" transform="matrix(0.4564666512080891,0,0,0.4564666512080891,8.153000231878664,13.588333719797772)"></circle><circle r="5" cx="15" cy="35" fill="#0e0e15" transform="matrix(0.42861286029340173,0,0,0.42861286029340173,8.570807095598974,19.99854988973094)"></circle><circle r="5" cx="15" cy="45" fill="#0e0e15" transform="matrix(0.4004562172383162,0,0,0.4004562172383162,8.993156741425256,26.979470224275772)"></circle><circle r="5" cx="15" cy="55" fill="#0e0e15" transform="matrix(0.3736446476875252,0,0,0.3736446476875252,9.395330284687123,34.449544377186115)"></circle><circle r="5" cx="15" cy="65" fill="#0e0e15" transform="matrix(0.3499718567903356,0,0,0.3499718567903356,9.750422148144967,42.25182930862819)"></circle><circle r="5" cx="15" cy="75" fill="#0e0e15" transform="matrix(0.33130216439344784,0,0,0.33130216439344784,10.030467534098282,50.15233767049141)"></circle><circle r="5" cx="15" cy="85" fill="#0e0e15" transform="matrix(0.31939516707619164,0,0,0.31939516707619164,10.209072493857125,57.85141079852371)"></circle><circle r="5" cx="15" cy="95" fill="#0e0e15" transform="matrix(0.3156710623667002,0,0,0.3156710623667002,10.264934064499498,65.01124907516348)"></circle><circle r="5" cx="15" cy="105" fill="#0e0e15" transform="matrix(0.3209501562780524,0,0,0.3209501562780524,10.185747655829214,71.3002335908045)"></circle><circle r="5" cx="15" cy="115" fill="#0e0e15" transform="matrix(0.3353980359261658,0,0,0.3353980359261658,9.969029461107514,76.42922586849093)"></circle><circle r="5" cx="15" cy="125" fill="#0e0e15" transform="matrix(0.35891094019457315,0,0,0.35891094019457315,9.616335897081402,80.13613247567835)"></circle><circle r="5" cx="15" cy="135" fill="#0e0e15" transform="matrix(0.39092356771341796,0,0,0.39092356771341796,9.136146484298731,82.22531835868858)"></circle><circle r="5" cx="15" cy="145" fill="#0e0e15" transform="matrix(0.43011850686860564,0,0,0.43011850686860564,8.548222396970916,82.63281650405219)"></circle><circle r="5" cx="15" cy="155" fill="#0e0e15" transform="matrix(0.4744019005041592,0,0,0.4744019005041592,7.883971492437612,81.46770542185533)"></circle><circle r="5" cx="15" cy="165" fill="#0e0e15" transform="matrix(0.521084199522146,0,0,0.521084199522146,7.18373700716781,79.0211070788459)"></circle><circle r="5" cx="15" cy="175" fill="#0e0e15" transform="matrix(0.5671928922457841,0,0,0.5671928922457841,6.492106616313238,75.7412438569878)"></circle><circle r="5" cx="15" cy="185" fill="#0e0e15" transform="matrix(0.6098424825476391,0,0,0.6098424825476391,5.852362761785415,72.17914072868678)"></circle><circle r="5" cx="15" cy="195" fill="#0e0e15" transform="matrix(0.6465847502425858,0,0,0.6465847502425858,5.301228746361213,68.91597370269578)"></circle><circle r="5" cx="25" cy="5" fill="#0e0e15" transform="matrix(0.4805255050078555,0,0,0.4805255050078555,12.986862374803612,2.5973724749607223)"></circle><circle r="5" cx="25" cy="15" fill="#0e0e15" transform="matrix(0.4633857292410535,0,0,0.4633857292410535,13.415356768973663,8.049214061384198)"></circle><circle r="5" cx="25" cy="25" fill="#0e0e15" transform="matrix(0.4434653691510125,0,0,0.4434653691510125,13.913365771224688,13.913365771224688)"></circle><circle r="5" cx="25" cy="35" fill="#0e0e15" transform="matrix(0.42184763144771553,0,0,0.42184763144771553,14.453809213807112,20.235332899329954)"></circle><circle r="5" cx="25" cy="45" fill="#0e0e15" transform="matrix(0.3996057877798879,0,0,0.3996057877798879,15.009855305502802,27.017739549905045)"></circle><circle r="5" cx="25" cy="55" fill="#0e0e15" transform="matrix(0.3780077708999503,0,0,0.3780077708999503,15.549805727501242,34.20957260050273)"></circle><circle r="5" cx="25" cy="65" fill="#0e0e15" transform="matrix(0.358586577537363,0,0,0.358586577537363,16.035335561565923,41.69187246007141)"></circle><circle r="5" cx="25" cy="75" fill="#0e0e15" transform="matrix(0.3430642458003579,0,0,0.3430642458003579,16.423393854991055,49.27018156497316)"></circle><circle r="5" cx="25" cy="85" fill="#0e0e15" transform="matrix(0.33318133090425817,0,0,0.33318133090425817,16.670466727393546,56.67958687313806)"></circle><circle r="5" cx="25" cy="95" fill="#0e0e15" transform="matrix(0.3304731342886147,0,0,0.3304731342886147,16.738171642784632,63.60505224258161)"></circle><circle r="5" cx="25" cy="105" fill="#0e0e15" transform="matrix(0.33602320110223055,0,0,0.33602320110223055,16.599419972444238,69.71756388426579)"></circle><circle r="5" cx="25" cy="115" fill="#0e0e15" transform="matrix(0.35021672488140304,0,0,0.35021672488140304,16.244581877964926,74.72507663863865)"></circle><circle r="5" cx="25" cy="125" fill="#0e0e15" transform="matrix(0.37271700487635473,0,0,0.37271700487635473,15.682074878091132,78.41037439045566)"></circle><circle r="5" cx="25" cy="135" fill="#0e0e15" transform="matrix(0.4028311884007953,0,0,0.4028311884007953,14.929220289980117,80.61778956589264)"></circle><circle r="5" cx="25" cy="145" fill="#0e0e15" transform="matrix(0.4393924088625606,0,0,0.4393924088625606,14.015189778435985,81.28810071492872)"></circle><circle r="5" cx="25" cy="155" fill="#0e0e15" transform="matrix(0.4806339488335454,0,0,0.4806339488335454,12.984151279161365,80.50173793080047)"></circle><circle r="5" cx="25" cy="165" fill="#0e0e15" transform="matrix(0.5242801508553934,0,0,0.5242801508553934,11.892996228615166,78.49377510886009)"></circle><circle r="5" cx="25" cy="175" fill="#0e0e15" transform="matrix(0.5677825357918967,0,0,0.5677825357918967,10.805436605202582,75.63805623641807)"></circle><circle r="5" cx="25" cy="185" fill="#0e0e15" transform="matrix(0.6086239201644128,0,0,0.6086239201644128,9.78440199588968,72.40457476958363)"></circle><circle r="5" cx="25" cy="195" fill="#0e0e15" transform="matrix(0.6446110844043647,0,0,0.6446110844043647,8.884722889890885,69.30083854114889)"></circle><circle r="5" cx="35" cy="5" fill="#0e0e15" transform="matrix(0.451020046313107,0,0,0.451020046313107,19.214298379041253,2.744899768434465)"></circle><circle r="5" cx="35" cy="15" fill="#0e0e15" transform="matrix(0.4395623496359912,0,0,0.4395623496359912,19.615317762740307,8.406564755460131)"></circle><circle r="5" cx="35" cy="25" fill="#0e0e15" transform="matrix(0.4260177132888392,0,0,0.4260177132888392,20.089380034890628,14.34955716777902)"></circle><circle r="5" cx="35" cy="35" fill="#0e0e15" transform="matrix(0.4109216939870745,0,0,0.4109216939870745,20.61774071045239,20.61774071045239)"></circle><circle r="5" cx="35" cy="45" fill="#0e0e15" transform="matrix(0.3948546996019049,0,0,0.3948546996019049,21.180085513933328,27.23153851791428)"></circle><circle r="5" cx="35" cy="55" fill="#0e0e15" transform="matrix(0.3787014755266201,0,0,0.3787014755266201,21.745448356568296,34.17141884603589)"></circle><circle r="5" cx="35" cy="65" fill="#0e0e15" transform="matrix(0.3637173683797971,0,0,0.3637173683797971,22.2698921067071,41.358371055313185)"></circle><circle r="5" cx="35" cy="75" fill="#0e0e15" transform="matrix(0.351452018061885,0,0,0.351452018061885,22.699179367834027,48.641098645358625)"></circle><circle r="5" cx="35" cy="85" fill="#0e0e15" transform="matrix(0.3435828930343009,0,0,0.3435828930343009,22.97459874379947,55.79545409208443)"></circle><circle r="5" cx="35" cy="95" fill="#0e0e15" transform="matrix(0.34170034360701496,0,0,0.34170034360701496,23.040487973754477,62.53846735733358)"></circle><circle r="5" cx="35" cy="105" fill="#0e0e15" transform="matrix(0.34707510793744,0,0,0.34707510793744,22.8523712221896,68.5571136665688)"></circle><circle r="5" cx="35" cy="115" fill="#0e0e15" transform="matrix(0.36042846536029016,0,0,0.36042846536029016,22.385003712389846,73.55072648356663)"></circle><circle r="5" cx="35" cy="125" fill="#0e0e15" transform="matrix(0.3817171960156892,0,0,0.3817171960156892,21.639898139450878,77.28535049803885)"></circle><circle r="5" cx="35" cy="135" fill="#0e0e15" transform="matrix(0.4101323312567854,0,0,0.4101323312567854,20.645368406012512,79.63213528033397)"></circle><circle r="5" cx="35" cy="145" fill="#0e0e15" transform="matrix(0.44449054355482054,0,0,0.44449054355482054,19.44283097558128,80.54887118455102)"></circle><circle r="5" cx="35" cy="155" fill="#0e0e15" transform="matrix(0.48324124667452284,0,0,0.48324124667452284,18.0865563663917,80.09760676544896)"></circle><circle r="5" cx="35" cy="165" fill="#0e0e15" transform="matrix(0.5244564194083494,0,0,0.5244564194083494,16.64402532070777,78.46469079762235)"></circle><circle r="5" cx="35" cy="175" fill="#0e0e15" transform="matrix(0.5659759089615465,0,0,0.5659759089615465,15.190843186345873,75.95421593172937)"></circle><circle r="5" cx="35" cy="185" fill="#0e0e15" transform="matrix(0.6056317319840436,0,0,0.6056317319840436,13.802889380558472,72.95812958295193)"></circle><circle r="5" cx="35" cy="195" fill="#0e0e15" transform="matrix(0.6414693741022559,0,0,0.6414693741022559,12.548571906421042,69.9134720500601)"></circle><circle r="5" cx="45" cy="5" fill="#0e0e15" transform="matrix(0.41768817254520135,0,0,0.41768817254520135,26.204032235465938,2.911559137273993)"></circle><circle r="5" cx="45" cy="15" fill="#0e0e15" transform="matrix(0.4118721621917417,0,0,0.4118721621917417,26.465752701371624,8.821917567123874)"></circle><circle r="5" cx="45" cy="25" fill="#0e0e15" transform="matrix(0.404631765066086,0,0,0.404631765066086,26.79157057202613,14.88420587334785)"></circle><circle r="5" cx="45" cy="35" fill="#0e0e15" transform="matrix(0.3959442400239619,0,0,0.3959442400239619,27.182509198921714,21.141951599161334)"></circle><circle r="5" cx="45" cy="45" fill="#0e0e15" transform="matrix(0.3859209839836557,0,0,0.3859209839836557,27.633555720735494,27.633555720735494)"></circle><circle r="5" cx="45" cy="55" fill="#0e0e15" transform="matrix(0.3750745057949697,0,0,0.3750745057949697,28.121647239226363,34.37090218127666)"></circle><circle r="5" cx="45" cy="65" fill="#0e0e15" transform="matrix(0.36438255834081373,0,0,0.36438255834081373,28.60278487466338,41.31513370784711)"></circle><circle r="5" cx="45" cy="75" fill="#0e0e15" transform="matrix(0.3552122975761485,0,0,0.3552122975761485,29.01544660907332,48.35907768178886)"></circle><circle r="5" cx="45" cy="85" fill="#0e0e15" transform="matrix(0.34915730309715676,0,0,0.34915730309715676,29.287921360627948,55.32162923674167)"></circle><circle r="5" cx="45" cy="95" fill="#0e0e15" transform="matrix(0.3478295547503678,0,0,0.3478295547503678,29.34767003623345,61.95619229871506)"></circle><circle r="5" cx="45" cy="105" fill="#0e0e15" transform="matrix(0.3526377197082975,0,0,0.3526377197082975,29.131302613126614,67.97303943062877)"></circle><circle r="5" cx="45" cy="115" fill="#0e0e15" transform="matrix(0.36457236435501533,0,0,0.36457236435501533,28.59424360402431,73.07417809917324)"></circle><circle r="5" cx="45" cy="125" fill="#0e0e15" transform="matrix(0.3840079652418876,0,0,0.3840079652418876,27.719641564115058,76.99900434476405)"></circle><circle r="5" cx="45" cy="135" fill="#0e0e15" transform="matrix(0.41052437582088985,0,0,0.41052437582088985,26.526403088059958,79.57920926417987)"></circle><circle r="5" cx="45" cy="145" fill="#0e0e15" transform="matrix(0.4429375317995247,0,0,0.4429375317995247,25.06781106902139,80.77405788906891)"></circle><circle r="5" cx="45" cy="155" fill="#0e0e15" transform="matrix(0.4797465965732787,0,0,0.4797465965732787,23.411403154202457,80.6392775311418)"></circle><circle r="5" cx="45" cy="165" fill="#0e0e15" transform="matrix(0.5192517536083915,0,0,0.5192517536083915,21.633671087622382,79.3234606546154)"></circle><circle r="5" cx="45" cy="175" fill="#0e0e15" transform="matrix(0.5595981193841286,0,0,0.5595981193841286,19.818084627714214,77.0703291077775)"></circle><circle r="5" cx="45" cy="185" fill="#0e0e15" transform="matrix(0.598905179289988,0,0,0.598905179289988,18.04926693195054,74.20254183135222)"></circle><circle r="5" cx="45" cy="195" fill="#0e0e15" transform="matrix(0.6354018485361337,0,0,0.6354018485361337,16.406916815873984,71.09663953545393)"></circle><circle r="5" cx="55" cy="5" fill="#0e0e15" transform="matrix(0.3824168351511431,0,0,0.3824168351511431,33.96707406668713,3.0879158242442846)"></circle><circle r="5" cx="55" cy="15" fill="#0e0e15" transform="matrix(0.38188883980980326,0,0,0.38188883980980326,33.99611381046082,9.271667402852952)"></circle><circle r="5" cx="55" cy="25" fill="#0e0e15" transform="matrix(0.38051219304909384,0,0,0.38051219304909384,34.07182938229984,15.487195173772655)"></circle><circle r="5" cx="55" cy="35" fill="#0e0e15" transform="matrix(0.37774247017330825,0,0,0.37774247017330825,34.22416414046805,21.779013543934212)"></circle><circle r="5" cx="55" cy="45" fill="#0e0e15" transform="matrix(0.37325520644447424,0,0,0.37325520644447424,34.470963645553915,28.20351570999866)"></circle><circle r="5" cx="55" cy="55" fill="#0e0e15" transform="matrix(0.3672128516842819,0,0,0.3672128516842819,34.80329315736449,34.80329315736449)"></circle><circle r="5" cx="55" cy="65" fill="#0e0e15" transform="matrix(0.36032902957138147,0,0,0.36032902957138147,35.181903373574016,41.578613077860204)"></circle><circle r="5" cx="55" cy="75" fill="#0e0e15" transform="matrix(0.3537940958717946,0,0,0.3537940958717946,35.5413247270513,48.4654428096154)"></circle><circle r="5" cx="55" cy="85" fill="#0e0e15" transform="matrix(0.3491152499190663,0,0,0.3491152499190663,35.79866125445135,55.32520375687936)"></circle><circle r="5" cx="55" cy="95" fill="#0e0e15" transform="matrix(0.34791371357762524,0,0,0.34791371357762524,35.86474575323061,61.9481972101256)"></circle><circle r="5" cx="55" cy="105" fill="#0e0e15" transform="matrix(0.35171075183966605,0,0,0.35171075183966605,35.65590864881837,68.07037105683506)"></circle><circle r="5" cx="55" cy="115" fill="#0e0e15" transform="matrix(0.3617235691227071,0,0,0.3617235691227071,35.10520369825111,73.40178955088868)"></circle><circle r="5" cx="55" cy="125" fill="#0e0e15" transform="matrix(0.378681375251824,0,0,0.378681375251824,34.172524361149684,77.664828093522)"></circle><circle r="5" cx="55" cy="135" fill="#0e0e15" transform="matrix(0.40266117502739823,0,0,0.40266117502739823,32.8536353734931,80.64074137130123)"></circle><circle r="5" cx="55" cy="145" fill="#0e0e15" transform="matrix(0.43294478994571683,0,0,0.43294478994571683,31.188036552985572,82.22300545787107)"></circle><circle r="5" cx="55" cy="155" fill="#0e0e15" transform="matrix(0.4681281866148708,0,0,0.4681281866148708,29.252949736182106,82.44013107469502)"></circle><circle r="5" cx="55" cy="165" fill="#0e0e15" transform="matrix(0.5065712171657435,0,0,0.5065712171657435,27.13858305588411,81.41574916765232)"></circle><circle r="5" cx="55" cy="175" fill="#0e0e15" transform="matrix(0.5465828253444716,0,0,0.5465828253444716,24.937944606054064,79.34800556471748)"></circle><circle r="5" cx="55" cy="185" fill="#0e0e15" transform="matrix(0.5864550412510249,0,0,0.5864550412510249,22.744972731193634,76.5058173685604)"></circle><circle r="5" cx="55" cy="195" fill="#0e0e15" transform="matrix(0.6244958106148666,0,0,0.6244958106148666,20.652730416182337,73.22331693010102)"></circle><circle r="5" cx="65" cy="5" fill="#0e0e15" transform="matrix(0.34755973763866665,0,0,0.34755973763866665,42.408617053486665,3.262201311806667)"></circle><circle r="5" cx="65" cy="15" fill="#0e0e15" transform="matrix(0.35167898913646817,0,0,0.35167898913646817,42.140865706129574,9.724815162952979)"></circle><circle r="5" cx="65" cy="25" fill="#0e0e15" transform="matrix(0.3554133856474277,0,0,0.3554133856474277,41.8981299329172,16.114665358814307)"></circle><circle r="5" cx="65" cy="35" fill="#0e0e15" transform="matrix(0.35774982712568415,0,0,0.35774982712568415,41.746261236830534,22.478756050601056)"></circle><circle r="5" cx="65" cy="45" fill="#0e0e15" transform="matrix(0.357968294224676,0,0,0.357968294224676,41.73206087539606,28.89142675988958)"></circle><circle r="5" cx="65" cy="55" fill="#0e0e15" transform="matrix(0.3559118432519255,0,0,0.3559118432519255,41.865730188624845,35.42484862114409)"></circle><circle r="5" cx="65" cy="65" fill="#0e0e15" transform="matrix(0.35205343134096456,0,0,0.35205343134096456,42.1165269628373,42.1165269628373)"></circle><circle r="5" cx="65" cy="75" fill="#0e0e15" transform="matrix(0.34742398596393276,0,0,0.34742398596393276,42.417440912344375,48.94320105270504)"></circle><circle r="5" cx="65" cy="85" fill="#0e0e15" transform="matrix(0.3434553928252181,0,0,0.3434553928252181,42.67539946636083,55.80629160985646)"></circle><circle r="5" cx="65" cy="95" fill="#0e0e15" transform="matrix(0.34178133609335815,0,0,0.34178133609335815,42.78421315393172,62.53077307113097)"></circle><circle r="5" cx="65" cy="105" fill="#0e0e15" transform="matrix(0.34402818484525927,0,0,0.34402818484525927,42.638167985058146,68.87704059124778)"></circle><circle r="5" cx="65" cy="115" fill="#0e0e15" transform="matrix(0.35161737951363614,0,0,0.35161737951363614,42.144870331613646,74.56400135593185)"></circle><circle r="5" cx="65" cy="125" fill="#0e0e15" transform="matrix(0.3655900320454166,0,0,0.3655900320454166,41.23664791704792,79.30124599432293)"></circle><circle r="5" cx="65" cy="135" fill="#0e0e15" transform="matrix(0.3864537133956998,0,0,0.3864537133956998,39.88050862927952,82.82874869158053)"></circle><circle r="5" cx="65" cy="145" fill="#0e0e15" transform="matrix(0.41404067595274024,0,0,0.41404067595274024,38.08735606307188,84.96410198685265)"></circle><circle r="5" cx="65" cy="155" fill="#0e0e15" transform="matrix(0.4474067311545493,0,0,0.4474067311545493,35.91856247495429,85.65195667104486)"></circle><circle r="5" cx="65" cy="165" fill="#0e0e15" transform="matrix(0.48507443335525663,0,0,0.48507443335525663,33.470161831908314,84.96271849638265)"></circle><circle r="5" cx="65" cy="175" fill="#0e0e15" transform="matrix(0.5253691603050705,0,0,0.5253691603050705,30.851004580170418,83.06039694661266)"></circle><circle r="5" cx="65" cy="185" fill="#0e0e15" transform="matrix(0.566576777723293,0,0,0.566576777723293,28.17250944798596,80.1832961211908)"></circle><circle r="5" cx="65" cy="195" fill="#0e0e15" transform="matrix(0.6069194729647671,0,0,0.6069194729647671,25.550234257290136,76.65070277187041)"></circle><circle r="5" cx="75" cy="5" fill="#0e0e15" transform="matrix(0.3156671229631619,0,0,0.3156671229631619,51.324965777762856,3.4216643851841906)"></circle><circle r="5" cx="75" cy="15" fill="#0e0e15" transform="matrix(0.3235698719469719,0,0,0.3235698719469719,50.73225960397711,10.146451920795421)"></circle><circle r="5" cx="75" cy="25" fill="#0e0e15" transform="matrix(0.3314284660603263,0,0,0.3314284660603263,50.14286504547553,16.71428834849184)"></circle><circle r="5" cx="75" cy="35" fill="#0e0e15" transform="matrix(0.3378196348137757,0,0,0.3378196348137757,49.66352738896683,23.17631278151785)"></circle><circle r="5" cx="75" cy="45" fill="#0e0e15" transform="matrix(0.34167338155857996,0,0,0.34167338155857996,49.374496383106504,29.6246978298639)"></circle><circle r="5" cx="75" cy="55" fill="#0e0e15" transform="matrix(0.3425499637810463,0,0,0.3425499637810463,49.30875271642152,36.15975199204246)"></circle><circle r="5" cx="75" cy="65" fill="#0e0e15" transform="matrix(0.3407119027096146,0,0,0.3407119027096146,49.44660729677891,42.85372632387505)"></circle><circle r="5" cx="75" cy="75" fill="#0e0e15" transform="matrix(0.33705585608196287,0,0,0.33705585608196287,49.720810793852785,49.720810793852785)"></circle><circle r="5" cx="75" cy="85" fill="#0e0e15" transform="matrix(0.33295844783625395,0,0,0.33295844783625395,50.02811641228095,56.69853193391842)"></circle><circle r="5" cx="75" cy="95" fill="#0e0e15" transform="matrix(0.3300794084074858,0,0,0.3300794084074858,50.24404436943857,63.64245620128885)"></circle><circle r="5" cx="75" cy="105" fill="#0e0e15" transform="matrix(0.3301546392267497,0,0,0.3301546392267497,50.238402057993774,70.33376288119129)"></circle><circle r="5" cx="75" cy="115" fill="#0e0e15" transform="matrix(0.33480107493804656,0,0,0.33480107493804656,49.88991937964651,76.49787638212464)"></circle><circle r="5" cx="75" cy="125" fill="#0e0e15" transform="matrix(0.3453444767641518,0,0,0.3453444767641518,49.099164242688616,81.83194040448103)"></circle><circle r="5" cx="75" cy="135" fill="#0e0e15" transform="matrix(0.3626705503698643,0,0,0.3626705503698643,47.79970872226018,86.03947570006832)"></circle><circle r="5" cx="75" cy="145" fill="#0e0e15" transform="matrix(0.3870890414878175,0,0,0.3870890414878175,45.96832188841369,88.87208898426647)"></circle><circle r="5" cx="75" cy="155" fill="#0e0e15" transform="matrix(0.4181923121638213,0,0,0.4181923121638213,43.6355765877134,90.1801916146077)"></circle><circle r="5" cx="75" cy="165" fill="#0e0e15" transform="matrix(0.45483938623682596,0,0,0.45483938623682596,40.887046032238054,89.95150127092371)"></circle><circle r="5" cx="75" cy="175" fill="#0e0e15" transform="matrix(0.49548381180677015,0,0,0.49548381180677015,37.83871411449224,88.29033293381522)"></circle><circle r="5" cx="75" cy="185" fill="#0e0e15" transform="matrix(0.5383278447475441,0,0,0.5383278447475441,34.62541164393419,85.40934872170433)"></circle><circle r="5" cx="75" cy="195" fill="#0e0e15" transform="matrix(0.581301995935669,0,0,0.581301995935669,31.40235030482482,81.64611079254455)"></circle><circle r="5" cx="85" cy="5" fill="#0e0e15" transform="matrix(0.2892140601330514,0,0,0.2892140601330514,60.416804888690635,3.553929699334743)"></circle><circle r="5" cx="85" cy="15" fill="#0e0e15" transform="matrix(0.2998964329731068,0,0,0.2998964329731068,59.50880319728592,10.501553505403397)"></circle><circle r="5" cx="85" cy="25" fill="#0e0e15" transform="matrix(0.3107483965808424,0,0,0.3107483965808424,58.5863862906284,17.23129008547894)"></circle><circle r="5" cx="85" cy="35" fill="#0e0e15" transform="matrix(0.3199987700285327,0,0,0.3199987700285327,57.80010454757472,23.800043049001353)"></circle><circle r="5" cx="85" cy="45" fill="#0e0e15" transform="matrix(0.32627671931974844,0,0,0.32627671931974844,57.26647885782138,30.317547630611323)"></circle><circle r="5" cx="85" cy="55" fill="#0e0e15" transform="matrix(0.3288998480535923,0,0,0.3288998480535923,57.04351291544465,36.91050835705242)"></circle><circle r="5" cx="85" cy="65" fill="#0e0e15" transform="matrix(0.32795418990907665,0,0,0.32795418990907665,57.12389385772848,43.68297765591002)"></circle><circle r="5" cx="85" cy="75" fill="#0e0e15" transform="matrix(0.3242313565206668,0,0,0.3242313565206668,57.44033469574332,50.68264826094999)"></circle><circle r="5" cx="85" cy="85" fill="#0e0e15" transform="matrix(0.31907735423285394,0,0,0.31907735423285394,57.87842489020741,57.87842489020741)"></circle><circle r="5" cx="85" cy="95" fill="#0e0e15" transform="matrix(0.31419684313846935,0,0,0.31419684313846935,58.2932683332301,65.15129990184542)"></circle><circle r="5" cx="85" cy="105" fill="#0e0e15" transform="matrix(0.31144587172229,0,0,0.31144587172229,58.52710090360535,72.29818346915955)"></circle><circle r="5" cx="85" cy="115" fill="#0e0e15" transform="matrix(0.3126353803483316,0,0,0.3126353803483316,58.425992670391814,79.04693125994186)"></circle><circle r="5" cx="85" cy="125" fill="#0e0e15" transform="matrix(0.31935702674606814,0,0,0.31935702674606814,57.854652726584206,85.08037165674148)"></circle><circle r="5" cx="85" cy="135" fill="#0e0e15" transform="matrix(0.33283214656765864,0,0,0.33283214656765864,56.709267541749014,90.06766021336608)"></circle><circle r="5" cx="85" cy="145" fill="#0e0e15" transform="matrix(0.35377392200510605,0,0,0.35377392200510605,54.929216629565985,93.70278130925962)"></circle><circle r="5" cx="85" cy="155" fill="#0e0e15" transform="matrix(0.3822420913840622,0,0,0.3822420913840622,52.509422232354716,95.75247583547036)"></circle><circle r="5" cx="85" cy="165" fill="#0e0e15" transform="matrix(0.4174916182389711,0,0,0.4174916182389711,49.51321244968746,96.11388299056978)"></circle><circle r="5" cx="85" cy="175" fill="#0e0e15" transform="matrix(0.4580989417807053,0,0,0.4580989417807053,46.06158994864005,94.83268518837657)"></circle><circle r="5" cx="85" cy="185" fill="#0e0e15" transform="matrix(0.5021797756650332,0,0,0.5021797756650332,42.31471906847217,92.09674150196885)"></circle><circle r="5" cx="85" cy="195" fill="#0e0e15" transform="matrix(0.547368959429652,0,0,0.547368959429652,38.473638448479576,88.26305291121786)"></circle><circle r="5" cx="95" cy="5" fill="#0e0e15" transform="matrix(0.27035291448387133,0,0,0.27035291448387133,69.31647312403223,3.6482354275806435)"></circle><circle r="5" cx="95" cy="15" fill="#0e0e15" transform="matrix(0.28275642601568357,0,0,0.28275642601568357,68.13813952851007,10.758653609764746)"></circle><circle r="5" cx="95" cy="25" fill="#0e0e15" transform="matrix(0.2954204551699917,0,0,0.2954204551699917,66.93505675885079,17.61448862075021)"></circle><circle r="5" cx="95" cy="35" fill="#0e0e15" transform="matrix(0.30629106912105114,0,0,0.30629106912105114,65.90234843350014,24.27981258076321)"></circle><circle r="5" cx="95" cy="45" fill="#0e0e15" transform="matrix(0.31374777139825794,0,0,0.31374777139825794,65.1939617171655,30.88135028707839)"></circle><circle r="5" cx="95" cy="55" fill="#0e0e15" transform="matrix(0.31690700783222936,0,0,0.31690700783222936,64.8938342559382,37.570114569227385)"></circle><circle r="5" cx="95" cy="65" fill="#0e0e15" transform="matrix(0.315713120240216,0,0,0.315713120240216,65.00725357717948,44.47864718438596)"></circle><circle r="5" cx="95" cy="75" fill="#0e0e15" transform="matrix(0.3108824211456154,0,0,0.3108824211456154,65.46616999116654,51.68381841407884)"></circle><circle r="5" cx="95" cy="85" fill="#0e0e15" transform="matrix(0.3037553227431998,0,0,0.3037553227431998,66.14324433939602,59.18079756682802)"></circle><circle r="5" cx="95" cy="95" fill="#0e0e15" transform="matrix(0.2961007132385136,0,0,0.2961007132385136,66.87043224234121,66.87043224234121)"></circle><circle r="5" cx="95" cy="105" fill="#0e0e15" transform="matrix(0.2899060336067404,0,0,0.2899060336067404,67.45892680735966,74.55986647129225)"></circle><circle r="5" cx="95" cy="115" fill="#0e0e15" transform="matrix(0.28717576773317943,0,0,0.28717576773317943,67.71830206534796,81.97478671068436)"></circle><circle r="5" cx="95" cy="125" fill="#0e0e15" transform="matrix(0.2897503188143195,0,0,0.2897503188143195,67.47371971263965,88.78121014821006)"></circle><circle r="5" cx="95" cy="135" fill="#0e0e15" transform="matrix(0.2991465048153357,0,0,0.2991465048153357,66.5810820425431,94.61522184992967)"></circle><circle r="5" cx="95" cy="145" fill="#0e0e15" transform="matrix(0.3164101656966837,0,0,0.3164101656966837,64.94103425881505,99.12052597398088)"></circle><circle r="5" cx="95" cy="155" fill="#0e0e15" transform="matrix(0.341960635039302,0,0,0.341960635039302,62.51373967126631,101.99610156890819)"></circle><circle r="5" cx="95" cy="165" fill="#0e0e15" transform="matrix(0.3753989599555486,0,0,0.3753989599555486,59.33709880422288,103.05917160733448)"></circle><circle r="5" cx="95" cy="175" fill="#0e0e15" transform="matrix(0.4154036238240684,0,0,0.4154036238240684,55.5366557367135,102.30436583078803)"></circle><circle r="5" cx="95" cy="185" fill="#0e0e15" transform="matrix(0.45993815290570744,0,0,0.45993815290570744,51.30587547395779,99.91144171244412)"></circle><circle r="5" cx="95" cy="195" fill="#0e0e15" transform="matrix(0.5065006193332324,0,0,0.5065006193332324,46.88244116334292,96.23237923001967)"></circle><circle r="5" cx="105" cy="5" fill="#0e0e15" transform="matrix(0.26070595532621144,0,0,0.26070595532621144,77.62587469074779,3.6964702233689426)"></circle><circle r="5" cx="105" cy="15" fill="#0e0e15" transform="matrix(0.273797577310093,0,0,0.273797577310093,76.25125438244024,10.893036340348605)"></circle><circle r="5" cx="105" cy="25" fill="#0e0e15" transform="matrix(0.2871304429929078,0,0,0.2871304429929078,74.85130348574468,17.821738925177307)"></circle><circle r="5" cx="105" cy="35" fill="#0e0e15" transform="matrix(0.29843524820593637,0,0,0.29843524820593637,73.66429893837667,24.554766312792225)"></circle><circle r="5" cx="105" cy="45" fill="#0e0e15" transform="matrix(0.30589369594948973,0,0,0.30589369594948973,72.88116192530359,31.234783682272962)"></circle><circle r="5" cx="105" cy="55" fill="#0e0e15" transform="matrix(0.30846190241438703,0,0,0.30846190241438703,72.61150024648936,38.03459536720871)"></circle><circle r="5" cx="105" cy="65" fill="#0e0e15" transform="matrix(0.30597547007374915,0,0,0.30597547007374915,72.87257564225634,45.11159444520631)"></circle><circle r="5" cx="105" cy="75" fill="#0e0e15" transform="matrix(0.29910232086362243,0,0,0.29910232086362243,73.59425630931965,52.56732593522832)"></circle><circle r="5" cx="105" cy="85" fill="#0e0e15" transform="matrix(0.28919864238779447,0,0,0.28919864238779447,74.63414254928158,60.41811539703747)"></circle><circle r="5" cx="105" cy="95" fill="#0e0e15" transform="matrix(0.27811255999900086,0,0,0.27811255999900086,75.7981812001049,68.57930680009491)"></circle><circle r="5" cx="105" cy="105" fill="#0e0e15" transform="matrix(0.2679694075255717,0,0,0.2679694075255717,76.86321220981498,76.86321220981498)"></circle><circle r="5" cx="105" cy="115" fill="#0e0e15" transform="matrix(0.2609617293294057,0,0,0.2609617293294057,77.5990184204124,84.98940112711834)"></circle><circle r="5" cx="105" cy="125" fill="#0e0e15" transform="matrix(0.2591564062980022,0,0,0.2591564062980022,77.78857733870977,92.60544921274973)"></circle><circle r="5" cx="105" cy="135" fill="#0e0e15" transform="matrix(0.2643205582901287,0,0,0.2643205582901287,77.24634137953649,99.31672463083262)"></circle><circle r="5" cx="105" cy="145" fill="#0e0e15" transform="matrix(0.27775713547153913,0,0,0.27775713547153913,75.83550077548838,104.72521535662682)"></circle><circle r="5" cx="105" cy="155" fill="#0e0e15" transform="matrix(0.3001303708940077,0,0,0.3001303708940077,73.4863110561292,108.47979251142881)"></circle><circle r="5" cx="105" cy="165" fill="#0e0e15" transform="matrix(0.3312506512293295,0,0,0.3312506512293295,70.21868162092039,110.34364254716064)"></circle><circle r="5" cx="105" cy="175" fill="#0e0e15" transform="matrix(0.3698679914844485,0,0,0.3698679914844485,66.16386089413291,110.27310149022152)"></circle><circle r="5" cx="105" cy="185" fill="#0e0e15" transform="matrix(0.4139312531557534,0,0,0.4139312531557534,61.53721841864589,108.42271816618562)"></circle><circle r="5" cx="105" cy="195" fill="#0e0e15" transform="matrix(0.46095491291384716,0,0,0.46095491291384716,56.599734144046046,105.1137919817998)"></circle><circle r="5" cx="115" cy="5" fill="#0e0e15" transform="matrix(0.2612159911546317,0,0,0.2612159911546317,84.96016101721736,3.6939200442268416)"></circle><circle r="5" cx="115" cy="15" fill="#0e0e15" transform="matrix(0.27405580089289494,0,0,0.27405580089289494,83.48358289731708,10.889162986606575)"></circle><circle r="5" cx="115" cy="25" fill="#0e0e15" transform="matrix(0.2870280573886785,0,0,0.2870280573886785,81.99177340030198,17.824298565283037)"></circle><circle r="5" cx="115" cy="35" fill="#0e0e15" transform="matrix(0.29771719106156885,0,0,0.29771719106156885,80.76252302791958,24.57989831284509)"></circle><circle r="5" cx="115" cy="45" fill="#0e0e15" transform="matrix(0.3041584854336119,0,0,0.3041584854336119,80.02177417513462,31.312868155487465)"></circle><circle r="5" cx="115" cy="55" fill="#0e0e15" transform="matrix(0.3051860479013485,0,0,0.3051860479013485,79.90360449134492,38.21476736542583)"></circle><circle r="5" cx="115" cy="65" fill="#0e0e15" transform="matrix(0.30055534032094133,0,0,0.30055534032094133,80.43613586309175,45.463902879138814)"></circle><circle r="5" cx="115" cy="75" fill="#0e0e15" transform="matrix(0.2909067821486543,0,0,0.2909067821486543,81.54572005290476,53.18199133885093)"></circle><circle r="5" cx="115" cy="85" fill="#0e0e15" transform="matrix(0.2776261987957944,0,0,0.2776261987957944,83.07298713848364,61.401773102357474)"></circle><circle r="5" cx="115" cy="95" fill="#0e0e15" transform="matrix(0.2626471477740602,0,0,0.2626471477740602,84.79557800598309,70.04852096146428)"></circle><circle r="5" cx="115" cy="105" fill="#0e0e15" transform="matrix(0.24822941512409383,0,0,0.24822941512409383,86.4536172607292,78.93591141197015)"></circle><circle r="5" cx="115" cy="115" fill="#0e0e15" transform="matrix(0.23673723453686807,0,0,0.23673723453686807,87.77521802826017,87.77521802826017)"></circle><circle r="5" cx="115" cy="125" fill="#0e0e15" transform="matrix(0.23043004149439056,0,0,0.23043004149439056,88.50054522814509,96.19624481320118)"></circle><circle r="5" cx="115" cy="135" fill="#0e0e15" transform="matrix(0.23126783467304388,0,0,0.23126783467304388,88.40419901259995,103.77884231913907)"></circle><circle r="5" cx="115" cy="145" fill="#0e0e15" transform="matrix(0.24072247676972858,0,0,0.24072247676972858,87.31691517148121,110.09524086838935)"></circle><circle r="5" cx="115" cy="155" fill="#0e0e15" transform="matrix(0.2595766434800812,0,0,0.2595766434800812,85.14868599979066,114.76562026058741)"></circle><circle r="5" cx="115" cy="165" fill="#0e0e15" transform="matrix(0.2877329955528632,0,0,0.2877329955528632,81.91070551142073,117.52405573377757)"></circle><circle r="5" cx="115" cy="175" fill="#0e0e15" transform="matrix(0.3241156799757871,0,0,0.3241156799757871,77.72669680278449,118.27975600423726)"></circle><circle r="5" cx="115" cy="185" fill="#0e0e15" transform="matrix(0.3667954810217976,0,0,0.3667954810217976,72.81851968249327,117.14283601096744)"></circle><circle r="5" cx="115" cy="195" fill="#0e0e15" transform="matrix(0.41334765445978805,0,0,0.41334765445978805,67.46501973712438,114.39720738034133)"></circle><circle r="5" cx="125" cy="5" fill="#0e0e15" transform="matrix(0.2720687030593831,0,0,0.2720687030593831,90.99141211757711,3.6396564847030843)"></circle><circle r="5" cx="125" cy="15" fill="#0e0e15" transform="matrix(0.2838585564970435,0,0,0.2838585564970435,89.51768043786956,10.742121652544348)"></circle><circle r="5" cx="125" cy="25" fill="#0e0e15" transform="matrix(0.29560994052521916,0,0,0.29560994052521916,88.0487574343476,17.60975148686952)"></circle><circle r="5" cx="125" cy="35" fill="#0e0e15" transform="matrix(0.3048315347023724,0,0,0.3048315347023724,86.89605816220345,24.330896285416966)"></circle><circle r="5" cx="125" cy="45" fill="#0e0e15" transform="matrix(0.30946211514459787,0,0,0.30946211514459787,86.31723560692527,31.074204818493094)"></circle><circle r="5" cx="125" cy="55" fill="#0e0e15" transform="matrix(0.30824793460498023,0,0,0.30824793460498023,86.46900817437748,38.04636359672609)"></circle><circle r="5" cx="125" cy="65" fill="#0e0e15" transform="matrix(0.3008862285206122,0,0,0.3008862285206122,87.38922143492348,45.44239514616021)"></circle><circle r="5" cx="125" cy="75" fill="#0e0e15" transform="matrix(0.28800177949328243,0,0,0.28800177949328243,88.9997775633397,53.39986653800382)"></circle><circle r="5" cx="125" cy="85" fill="#0e0e15" transform="matrix(0.2710127325866861,0,0,0.2710127325866861,91.12340842666424,61.96391773013168)"></circle><circle r="5" cx="125" cy="95" fill="#0e0e15" transform="matrix(0.2519311137398538,0,0,0.2519311137398538,93.50861078251828,71.06654419471388)"></circle><circle r="5" cx="125" cy="105" fill="#0e0e15" transform="matrix(0.2331327635133382,0,0,0.2331327635133382,95.85840456083272,80.52105983109949)"></circle><circle r="5" cx="125" cy="115" fill="#0e0e15" transform="matrix(0.21712065830154037,0,0,0.21712065830154037,97.85991771230745,90.03112429532285)"></circle><circle r="5" cx="125" cy="125" fill="#0e0e15" transform="matrix(0.20629485106140033,0,0,0.20629485106140033,99.21314361732496,99.21314361732496)"></circle><circle r="5" cx="125" cy="135" fill="#0e0e15" transform="matrix(0.20273153419367818,0,0,0.20273153419367818,99.65855822579023,107.63124288385345)"></circle><circle r="5" cx="125" cy="145" fill="#0e0e15" transform="matrix(0.20797195703484894,0,0,0.20797195703484894,99.00350537064388,114.8440662299469)"></circle><circle r="5" cx="125" cy="155" fill="#0e0e15" transform="matrix(0.22286407854401924,0,0,0.22286407854401924,97.1419901819976,120.45606782567702)"></circle><circle r="5" cx="125" cy="165" fill="#0e0e15" transform="matrix(0.2474461620487619,0,0,0.2474461620487619,94.06922974390476,124.17138326195428)"></circle><circle r="5" cx="125" cy="175" fill="#0e0e15" transform="matrix(0.28084173434099785,0,0,0.28084173434099785,89.89478320737527,125.85269649032537)"></circle><circle r="5" cx="125" cy="185" fill="#0e0e15" transform="matrix(0.3212869114763267,0,0,0.3212869114763267,84.83913606545916,125.56192137687955)"></circle><circle r="5" cx="125" cy="195" fill="#0e0e15" transform="matrix(0.3664556068720204,0,0,0.3664556068720204,79.19304914099746,123.54115665995603)"></circle><circle r="5" cx="135" cy="5" fill="#0e0e15" transform="matrix(0.292695422924471,0,0,0.292695422924471,95.48611790519641,3.536522885377645)"></circle><circle r="5" cx="135" cy="15" fill="#0e0e15" transform="matrix(0.3028025162830342,0,0,0.3028025162830342,94.12166030179039,10.457962255754488)"></circle><circle r="5" cx="135" cy="25" fill="#0e0e15" transform="matrix(0.31266998977021354,0,0,0.31266998977021354,92.78955138102117,17.18325025574466)"></circle><circle r="5" cx="135" cy="35" fill="#0e0e15" transform="matrix(0.3198025583778662,0,0,0.3198025583778662,91.82665461898807,23.80691045677468)"></circle><circle r="5" cx="135" cy="45" fill="#0e0e15" transform="matrix(0.32209012570730994,0,0,0.32209012570730994,91.51783302951316,30.505944343171052)"></circle><circle r="5" cx="135" cy="55" fill="#0e0e15" transform="matrix(0.31821959779437337,0,0,0.31821959779437337,92.04035429775959,37.497922121309465)"></circle><circle r="5" cx="135" cy="65" fill="#0e0e15" transform="matrix(0.3078430624684695,0,0,0.3078430624684695,93.44118656675661,44.99020093954948)"></circle><circle r="5" cx="135" cy="75" fill="#0e0e15" transform="matrix(0.2915696864354479,0,0,0.2915696864354479,95.63809233121454,53.1322735173414)"></circle><circle r="5" cx="135" cy="85" fill="#0e0e15" transform="matrix(0.2708379421908257,0,0,0.2708379421908257,98.43687780423853,61.978774913779816)"></circle><circle r="5" cx="135" cy="95" fill="#0e0e15" transform="matrix(0.24771403678683868,0,0,0.24771403678683868,101.55860503377679,71.46716650525033)"></circle><circle r="5" cx="135" cy="105" fill="#0e0e15" transform="matrix(0.2246516743936004,0,0,0.2246516743936004,104.67202395686394,81.41157418867196)"></circle><circle r="5" cx="135" cy="115" fill="#0e0e15" transform="matrix(0.20423755158766727,0,0,0.20423755158766727,107.42793053566493,91.51268156741827)"></circle><circle r="5" cx="135" cy="125" fill="#0e0e15" transform="matrix(0.18893986050036626,0,0,0.18893986050036626,109.49311883245056,101.38251743745423)"></circle><circle r="5" cx="135" cy="135" fill="#0e0e15" transform="matrix(0.18088755450112629,0,0,0.18088755450112629,110.58018014234796,110.58018014234796)"></circle><circle r="5" cx="135" cy="145" fill="#0e0e15" transform="matrix(0.18168857290776974,0,0,0.18168857290776974,110.47204265745108,118.65515692837339)"></circle><circle r="5" cx="135" cy="155" fill="#0e0e15" transform="matrix(0.1922826464338516,0,0,0.1922826464338516,109.04184273143004,125.196189802753)"></circle><circle r="5" cx="135" cy="165" fill="#0e0e15" transform="matrix(0.21282869507406577,0,0,0.21282869507406577,106.26812616500112,129.88326531277914)"></circle><circle r="5" cx="135" cy="175" fill="#0e0e15" transform="matrix(0.24262048539675257,0,0,0.24262048539675257,102.24623447143841,132.5414150555683)"></circle><circle r="5" cx="135" cy="185" fill="#0e0e15" transform="matrix(0.28007926179440135,0,0,0.28007926179440135,97.18929965775581,133.18533656803575)"></circle><circle r="5" cx="135" cy="195" fill="#0e0e15" transform="matrix(0.3230134397052215,0,0,0.3230134397052215,91.39318563979509,132.0123792574818)"></circle><circle r="5" cx="145" cy="5" fill="#0e0e15" transform="matrix(0.321860178775278,0,0,0.321860178775278,98.33027407758469,3.39069910612361)"></circle><circle r="5" cx="145" cy="15" fill="#0e0e15" transform="matrix(0.32980978249293874,0,0,0.32980978249293874,97.17758153852388,10.052853262605918)"></circle><circle r="5" cx="145" cy="25" fill="#0e0e15" transform="matrix(0.33732159158883684,0,0,0.33732159158883684,96.08836921961866,16.566960210279078)"></circle><circle r="5" cx="145" cy="35" fill="#0e0e15" transform="matrix(0.3419694575329581,0,0,0.3419694575329581,95.41442865772107,23.03106898634647)"></circle><circle r="5" cx="145" cy="45" fill="#0e0e15" transform="matrix(0.34163914080085167,0,0,0.34163914080085167,95.46232458387651,29.626238663961676)"></circle><circle r="5" cx="145" cy="55" fill="#0e0e15" transform="matrix(0.3349797627643501,0,0,0.3349797627643501,96.42793439916923,36.576113047960746)"></circle><circle r="5" cx="145" cy="65" fill="#0e0e15" transform="matrix(0.3216005360944676,0,0,0.3216005360944676,98.3679222663022,44.09596515385961)"></circle><circle r="5" cx="145" cy="75" fill="#0e0e15" transform="matrix(0.3020805455899788,0,0,0.3020805455899788,101.19832088945307,52.34395908075159)"></circle><circle r="5" cx="145" cy="85" fill="#0e0e15" transform="matrix(0.2778486158632042,0,0,0.2778486158632042,104.7119506998354,61.38286765162764)"></circle><circle r="5" cx="145" cy="95" fill="#0e0e15" transform="matrix(0.2509809176073752,0,0,0.2509809176073752,108.6077669469306,71.15681282729936)"></circle><circle r="5" cx="145" cy="105" fill="#0e0e15" transform="matrix(0.22395548347944774,0,0,0.22395548347944774,112.52645489548007,81.48467423465799)"></circle><circle r="5" cx="145" cy="115" fill="#0e0e15" transform="matrix(0.19938834765615562,0,0,0.19938834765615562,116.08868958985744,92.0703400195421)"></circle><circle r="5" cx="145" cy="125" fill="#0e0e15" transform="matrix(0.17978334439771604,0,0,0.17978334439771604,118.93141506233118,102.52708195028549)"></circle><circle r="5" cx="145" cy="135" fill="#0e0e15" transform="matrix(0.16731374459596304,0,0,0.16731374459596304,120.73950703358535,112.412644479545)"></circle><circle r="5" cx="145" cy="145" fill="#0e0e15" transform="matrix(0.1636422289709576,0,0,0.1636422289709576,121.27187679921116,121.27187679921116)"></circle><circle r="5" cx="145" cy="155" fill="#0e0e15" transform="matrix(0.16978120625536045,0,0,0.16978120625536045,120.38172509297274,128.68391303041912)"></circle><circle r="5" cx="145" cy="165" fill="#0e0e15" transform="matrix(0.18599179993641152,0,0,0.18599179993641152,118.03118900922033,134.3113530104921)"></circle><circle r="5" cx="145" cy="175" fill="#0e0e15" transform="matrix(0.21171677792367866,0,0,0.21171677792367866,114.30106720106659,137.94956386335622)"></circle><circle r="5" cx="145" cy="185" fill="#0e0e15" transform="matrix(0.24556676827198268,0,0,0.24556676827198268,109.39281860056252,139.5701478696832)"></circle><circle r="5" cx="145" cy="195" fill="#0e0e15" transform="matrix(0.2855132754208376,0,0,0.2855132754208376,103.60057506397854,139.32491129293666)"></circle><circle r="5" cx="155" cy="5" fill="#0e0e15" transform="matrix(0.35782777926356923,0,0,0.35782777926356923,99.53669421414676,3.210861103682154)"></circle><circle r="5" cx="155" cy="15" fill="#0e0e15" transform="matrix(0.36326136459983105,0,0,0.36326136459983105,98.69448848702618,9.551079531002534)"></circle><circle r="5" cx="155" cy="25" fill="#0e0e15" transform="matrix(0.36809135508986357,0,0,0.36809135508986357,97.94583996107114,15.79771612275341)"></circle><circle r="5" cx="155" cy="35" fill="#0e0e15" transform="matrix(0.3700361787931138,0,0,0.3700361787931138,97.64439228706736,22.04873374224102)"></circle><circle r="5" cx="155" cy="45" fill="#0e0e15" transform="matrix(0.3670191261234292,0,0,0.3670191261234292,98.11203545086848,28.484139324445685)"></circle><circle r="5" cx="155" cy="55" fill="#0e0e15" transform="matrix(0.3576653860892647,0,0,0.3576653860892647,99.56186515616398,35.32840376509044)"></circle><circle r="5" cx="155" cy="65" fill="#0e0e15" transform="matrix(0.34153395626004207,0,0,0.34153395626004207,102.06223677969348,42.80029284309727)"></circle><circle r="5" cx="155" cy="75" fill="#0e0e15" transform="matrix(0.3191636523575066,0,0,0.3191636523575066,105.52963388458647,51.06272607318701)"></circle><circle r="5" cx="155" cy="85" fill="#0e0e15" transform="matrix(0.2919575656181631,0,0,0.2919575656181631,109.74657732918472,60.183606922456136)"></circle><circle r="5" cx="155" cy="95" fill="#0e0e15" transform="matrix(0.2619635317123716,0,0,0.2619635317123716,114.39565258458241,70.1134644873247)"></circle><circle r="5" cx="155" cy="105" fill="#0e0e15" transform="matrix(0.23162277116761054,0,0,0.23162277116761054,119.09847046902036,80.67960902740089)"></circle><circle r="5" cx="155" cy="115" fill="#0e0e15" transform="matrix(0.2035150220540019,0,0,0.2035150220540019,123.45517158162971,91.59577246378979)"></circle><circle r="5" cx="155" cy="125" fill="#0e0e15" transform="matrix(0.180119136474105,0,0,0.180119136474105,127.08153384651372,102.48510794073688)"></circle><circle r="5" cx="155" cy="135" fill="#0e0e15" transform="matrix(0.16360248119852375,0,0,0.16360248119852375,129.64161541422882,112.9136650381993)"></circle><circle r="5" cx="155" cy="145" fill="#0e0e15" transform="matrix(0.15564747722695577,0,0,0.15564747722695577,130.87464102982184,122.43111580209141)"></circle><circle r="5" cx="155" cy="155" fill="#0e0e15" transform="matrix(0.15731923313092383,0,0,0.15731923313092383,130.61551886470681,130.61551886470681)"></circle><circle r="5" cx="155" cy="165" fill="#0e0e15" transform="matrix(0.16897447274959643,0,0,0.16897447274959643,128.80895672381254,137.11921199631658)"></circle><circle r="5" cx="155" cy="175" fill="#0e0e15" transform="matrix(0.19020882920295468,0,0,0.19020882920295468,125.51763147354202,141.71345488948293)"></circle><circle r="5" cx="155" cy="185" fill="#0e0e15" transform="matrix(0.21984849878746218,0,0,0.21984849878746218,120.92348268794336,144.3280277243195)"></circle><circle r="5" cx="155" cy="195" fill="#0e0e15" transform="matrix(0.2560829790004875,0,0,0.2560829790004875,115.30713825492444,145.06381909490494)"></circle><circle r="5" cx="165" cy="5" fill="#0e0e15" transform="matrix(0.3985166869002423,0,0,0.3985166869002423,99.24474666146003,3.0074165654987883)"></circle><circle r="5" cx="165" cy="15" fill="#0e0e15" transform="matrix(0.40115529010265766,0,0,0.40115529010265766,98.80937713306149,8.982670648460136)"></circle><circle r="5" cx="165" cy="25" fill="#0e0e15" transform="matrix(0.4030602276951082,0,0,0.4030602276951082,98.49506243030714,14.923494307622295)"></circle><circle r="5" cx="165" cy="35" fill="#0e0e15" transform="matrix(0.40218354642276005,0,0,0.40218354642276005,98.6397148402446,20.923575875203397)"></circle><circle r="5" cx="165" cy="45" fill="#0e0e15" transform="matrix(0.39653610895425156,0,0,0.39653610895425156,99.57154202254848,27.15587509705868)"></circle><circle r="5" cx="165" cy="55" fill="#0e0e15" transform="matrix(0.3847727655696085,0,0,0.3847727655696085,101.5124936810146,33.83749789367153)"></circle><circle r="5" cx="165" cy="65" fill="#0e0e15" transform="matrix(0.36646036958146444,0,0,0.36646036958146444,104.53403901905837,41.18007597720481)"></circle><circle r="5" cx="165" cy="75" fill="#0e0e15" transform="matrix(0.3420873797166354,0,0,0.3420873797166354,108.55558234675516,49.343446521252346)"></circle><circle r="5" cx="165" cy="85" fill="#0e0e15" transform="matrix(0.31294932183580965,0,0,0.31294932183580965,113.36336189709141,58.39930764395618)"></circle><circle r="5" cx="165" cy="95" fill="#0e0e15" transform="matrix(0.28096086910564694,0,0,0.28096086910564694,118.64145659756826,68.30871743496354)"></circle><circle r="5" cx="165" cy="105" fill="#0e0e15" transform="matrix(0.24842901525868816,0,0,0.24842901525868816,124.00921248231646,78.91495339783773)"></circle><circle r="5" cx="165" cy="115" fill="#0e0e15" transform="matrix(0.21781486341600223,0,0,0.21781486341600223,129.06054753635965,89.95129070715974)"></circle><circle r="5" cx="165" cy="125" fill="#0e0e15" transform="matrix(0.19150522659311037,0,0,0.19150522659311037,133.4016376121368,101.0618466758612)"></circle><circle r="5" cx="165" cy="135" fill="#0e0e15" transform="matrix(0.17160953529386444,0,0,0.17160953529386444,136.68442667651237,111.8327127353283)"></circle><circle r="5" cx="165" cy="145" fill="#0e0e15" transform="matrix(0.15979247251965242,0,0,0.15979247251965242,138.63424203425734,121.8300914846504)"></circle><circle r="5" cx="165" cy="155" fill="#0e0e15" transform="matrix(0.15714830708251956,0,0,0.15714830708251956,139.07052933138428,130.64201240220947)"></circle><circle r="5" cx="165" cy="165" fill="#0e0e15" transform="matrix(0.16411907231056835,0,0,0.16411907231056835,137.9203530687562,137.9203530687562)"></circle><circle r="5" cx="165" cy="175" fill="#0e0e15" transform="matrix(0.18045553907229664,0,0,0.18045553907229664,135.22483605307104,143.4202806623481)"></circle><circle r="5" cx="165" cy="185" fill="#0e0e15" transform="matrix(0.20522150924202687,0,0,0.20522150924202687,131.13845097506555,147.03402079022504)"></circle><circle r="5" cx="165" cy="195" fill="#0e0e15" transform="matrix(0.23688347966118273,0,0,0.23688347966118273,125.91422585590485,148.80772146606938)"></circle><circle r="5" cx="175" cy="5" fill="#0e0e15" transform="matrix(0.4415333449362248,0,0,0.4415333449362248,97.73166463616066,2.792333275318876)"></circle><circle r="5" cx="175" cy="15" fill="#0e0e15" transform="matrix(0.441195109632375,0,0,0.441195109632375,97.79085581433438,8.382073355514375)"></circle><circle r="5" cx="175" cy="25" fill="#0e0e15" transform="matrix(0.43999806539052516,0,0,0.43999806539052516,98.0003385566581,14.000048365236871)"></circle><circle r="5" cx="175" cy="35" fill="#0e0e15" transform="matrix(0.43627090166785965,0,0,0.43627090166785965,98.65259220812456,19.730518441624913)"></circle><circle r="5" cx="175" cy="45" fill="#0e0e15" transform="matrix(0.4282845273169704,0,0,0.4282845273169704,100.05020771953018,25.727196270736332)"></circle><circle r="5" cx="175" cy="55" fill="#0e0e15" transform="matrix(0.4148078500874962,0,0,0.4148078500874962,102.40862623468816,32.18556824518771)"></circle><circle r="5" cx="175" cy="65" fill="#0e0e15" transform="matrix(0.3953591518708153,0,0,0.3953591518708153,105.81214842260732,39.30165512839701)"></circle><circle r="5" cx="175" cy="75" fill="#0e0e15" transform="matrix(0.3702727472684877,0,0,0.3702727472684877,110.20226922801466,47.22954395486342)"></circle><circle r="5" cx="175" cy="85" fill="#0e0e15" transform="matrix(0.34063458048208833,0,0,0.34063458048208833,115.38894841563454,56.04606065902249)"></circle><circle r="5" cx="175" cy="95" fill="#0e0e15" transform="matrix(0.30813131526386606,0,0,0.30813131526386606,121.07701982882344,65.72752504993272)"></circle><circle r="5" cx="175" cy="105" fill="#0e0e15" transform="matrix(0.2748498255208047,0,0,0.2748498255208047,126.90128053385916,76.1407683203155)"></circle><circle r="5" cx="175" cy="115" fill="#0e0e15" transform="matrix(0.24305697265632767,0,0,0.24305697265632767,132.46502978514266,87.04844814452233)"></circle><circle r="5" cx="175" cy="125" fill="#0e0e15" transform="matrix(0.2149831598641077,0,0,0.2149831598641077,137.37794702378116,98.12710501698653)"></circle><circle r="5" cx="175" cy="135" fill="#0e0e15" transform="matrix(0.19262738335719048,0,0,0.19262738335719048,141.29020791249167,108.99530324677929)"></circle><circle r="5" cx="175" cy="145" fill="#0e0e15" transform="matrix(0.17759635592293677,0,0,0.17759635592293677,143.92063771348606,119.24852839117418)"></circle><circle r="5" cx="175" cy="155" fill="#0e0e15" transform="matrix(0.17098575924011727,0,0,0.17098575924011727,145.07749213297947,128.49720731778183)"></circle><circle r="5" cx="175" cy="165" fill="#0e0e15" transform="matrix(0.17330778807887112,0,0,0.17330778807887112,144.67113708619755,136.40421496698627)"></circle><circle r="5" cx="175" cy="175" fill="#0e0e15" transform="matrix(0.18446588182714294,0,0,0.18446588182714294,142.71847068025,142.71847068025)"></circle><circle r="5" cx="175" cy="185" fill="#0e0e15" transform="matrix(0.20377450422573634,0,0,0.20377450422573634,139.33946176049614,147.30171671823877)"></circle><circle r="5" cx="175" cy="195" fill="#0e0e15" transform="matrix(0.23001659854178544,0,0,0.23001659854178544,134.74709525518756,150.14676328435183)"></circle><circle r="5" cx="185" cy="5" fill="#0e0e15" transform="matrix(0.4843083529839585,0,0,0.4843083529839585,95.40295469796767,2.578458235080207)"></circle><circle r="5" cx="185" cy="15" fill="#0e0e15" transform="matrix(0.48094787987632837,0,0,0.48094787987632837,96.02464222287925,7.785781801855075)"></circle><circle r="5" cx="185" cy="25" fill="#0e0e15" transform="matrix(0.47662862927089733,0,0,0.47662862927089733,96.823703584884,13.084284268227567)"></circle><circle r="5" cx="185" cy="35" fill="#0e0e15" transform="matrix(0.470336249286265,0,0,0.470336249286265,97.98779388204098,18.538231274980724)"></circle><circle r="5" cx="185" cy="45" fill="#0e0e15" transform="matrix(0.4606803306198497,0,0,0.4606803306198497,99.7741388353278,24.269385122106762)"></circle><circle r="5" cx="185" cy="55" fill="#0e0e15" transform="matrix(0.44649682385732836,0,0,0.44649682385732836,102.39808758639425,30.44267468784694)"></circle><circle r="5" cx="185" cy="65" fill="#0e0e15" transform="matrix(0.4271879714445402,0,0,0.4271879714445402,105.97022528276007,37.23278185610489)"></circle><circle r="5" cx="185" cy="75" fill="#0e0e15" transform="matrix(0.4028593901217616,0,0,0.4028593901217616,110.47101282747411,44.78554574086788)"></circle><circle r="5" cx="185" cy="85" fill="#0e0e15" transform="matrix(0.37430977301608875,0,0,0.37430977301608875,115.75269199202359,53.183669293632455)"></circle><circle r="5" cx="185" cy="95" fill="#0e0e15" transform="matrix(0.3429203382868598,0,0,0.3429203382868598,121.55973741693094,62.422567862748316)"></circle><circle r="5" cx="185" cy="105" fill="#0e0e15" transform="matrix(0.31048343455679284,0,0,0.31048343455679284,127.56056460699332,72.39923937153675)"></circle><circle r="5" cx="185" cy="115" fill="#0e0e15" transform="matrix(0.2790026223377928,0,0,0.2790026223377928,133.38451486750833,82.91469843115382)"></circle><circle r="5" cx="185" cy="125" fill="#0e0e15" transform="matrix(0.250490085275203,0,0,0.250490085275203,138.65933422408744,93.68873934059962)"></circle><circle r="5" cx="185" cy="135" fill="#0e0e15" transform="matrix(0.22678138528763062,0,0,0.22678138528763062,143.04544372178833,104.38451298616987)"></circle><circle r="5" cx="185" cy="145" fill="#0e0e15" transform="matrix(0.20938236157138404,0,0,0.20938236157138404,146.26426310929395,114.63955757214931)"></circle><circle r="5" cx="185" cy="155" fill="#0e0e15" transform="matrix(0.19935838496898872,0,0,0.19935838496898872,148.11869878073708,124.09945032980674)"></circle><circle r="5" cx="185" cy="165" fill="#0e0e15" transform="matrix(0.19727221637023534,0,0,0.19727221637023534,148.50463997150646,132.45008429891118)"></circle><circle r="5" cx="185" cy="175" fill="#0e0e15" transform="matrix(0.20317338062172519,0,0,0.20317338062172519,147.41292458498083,139.4446583911981)"></circle><circle r="5" cx="185" cy="185" fill="#0e0e15" transform="matrix(0.21663406739230467,0,0,0.21663406739230467,144.92269753242363,144.92269753242363)"></circle><circle r="5" cx="185" cy="195" fill="#0e0e15" transform="matrix(0.23679862124944495,0,0,0.23679862124944495,141.1922550688527,148.82426885635823)"></circle><circle r="5" cx="195" cy="5" fill="#0e0e15" transform="matrix(0.5242950090167158,0,0,0.5242950090167158,92.76247324174042,2.378524954916421)"></circle><circle r="5" cx="195" cy="15" fill="#0e0e15" transform="matrix(0.5181524932110506,0,0,0.5181524932110506,93.96026382384512,7.227712601834241)"></circle><circle r="5" cx="195" cy="25" fill="#0e0e15" transform="matrix(0.5110867934144392,0,0,0.5110867934144392,95.33807528418436,12.22283016463902)"></circle><circle r="5" cx="195" cy="35" fill="#0e0e15" transform="matrix(0.5028146445394579,0,0,0.5028146445394579,96.9511443148057,17.401487441118974)"></circle><circle r="5" cx="195" cy="45" fill="#0e0e15" transform="matrix(0.49231080406762306,0,0,0.49231080406762306,98.99939320681351,22.84601381695696)"></circle><circle r="5" cx="195" cy="55" fill="#0e0e15" transform="matrix(0.47847529169947234,0,0,0.47847529169947234,101.6973181186029,28.683858956529022)"></circle><circle r="5" cx="195" cy="65" fill="#0e0e15" transform="matrix(0.46056928777183914,0,0,0.46056928777183914,105.18898888449137,35.062996294830455)"></circle><circle r="5" cx="195" cy="75" fill="#0e0e15" transform="matrix(0.4384284320315609,0,0,0.4384284320315609,109.50645575384563,42.11786759763293)"></circle><circle r="5" cx="195" cy="85" fill="#0e0e15" transform="matrix(0.41251170314763774,0,0,0.41251170314763774,114.56021788621064,49.93650523245079)"></circle><circle r="5" cx="195" cy="95" fill="#0e0e15" transform="matrix(0.38383564752766386,0,0,0.38383564752766386,120.15204873210554,58.53561348487193)"></circle><circle r="5" cx="195" cy="105" fill="#0e0e15" transform="matrix(0.35383593982670175,0,0,0.35383593982670175,126.00199173379316,67.8472263181963)"></circle><circle r="5" cx="195" cy="115" fill="#0e0e15" transform="matrix(0.3241910969976564,0,0,0.3241910969976564,131.782736085457,77.71802384526951)"></circle><circle r="5" cx="195" cy="125" fill="#0e0e15" transform="matrix(0.2966366328316319,0,0,0.2966366328316319,137.1558565978318,87.92042089604601)"></circle><circle r="5" cx="195" cy="135" fill="#0e0e15" transform="matrix(0.27279203067471836,0,0,0.27279203067471836,141.80555401842992,98.17307585891302)"></circle><circle r="5" cx="195" cy="145" fill="#0e0e15" transform="matrix(0.2540176283841665,0,0,0.2540176283841665,145.46656246508752,108.16744388429586)"></circle><circle r="5" cx="195" cy="155" fill="#0e0e15" transform="matrix(0.24131385160194743,0,0,0.24131385160194743,147.94379893762024,117.59635300169815)"></circle><circle r="5" cx="195" cy="165" fill="#0e0e15" transform="matrix(0.23527119907728627,0,0,0.23527119907728627,149.12211617992918,126.18025215224776)"></circle><circle r="5" cx="195" cy="175" fill="#0e0e15" transform="matrix(0.23607597689638773,0,0,0.23607597689638773,148.96518450520438,133.68670404313215)"></circle><circle r="5" cx="195" cy="185" fill="#0e0e15" transform="matrix(0.24356238994066448,0,0,0.24356238994066448,147.50533396157044,139.94095786097708)"></circle><circle r="5" cx="195" cy="195" fill="#0e0e15" transform="matrix(0.25730220711143703,0,0,0.25730220711143703,144.8260696132698,144.8260696132698)"></circle></svg>